<svg width="25" height="24" viewBox="0 0 25 24" fill="none" xmlns="http://www.w3.org/2000/svg">
    <path d="M22.25 15C22.2478 14.3997 22.0655 13.8139 21.7268 13.3183C21.3881 12.8227 20.9085 12.4401 20.35 12.22L22.22 5.22001C22.2591 5.07093 22.2631 4.91484 22.2319 4.76392C22.2007 4.61301 22.135 4.47135 22.04 4.35001C21.9429 4.23632 21.8215 4.14585 21.6848 4.08528C21.548 4.02471 21.3995 3.99557 21.25 4.00001H7.55L7.22 2.74001C7.16263 2.52692 7.03638 2.33879 6.86093 2.20494C6.68547 2.0711 6.47068 1.99904 6.25 2.00001H4.25V4.00001H5.48L7.96 13.26C8.0186 13.4782 8.14934 13.6701 8.33092 13.8044C8.51251 13.9388 8.73424 14.0077 8.96 14H19.25C19.5152 14 19.7696 14.1054 19.9571 14.2929C20.1446 14.4804 20.25 14.7348 20.25 15C20.25 15.2652 20.1446 15.5196 19.9571 15.7071C19.7696 15.8947 19.5152 16 19.25 16H6.25C5.98478 16 5.73043 16.1054 5.54289 16.2929C5.35536 16.4804 5.25 16.7348 5.25 17C5.25 17.2652 5.35536 17.5196 5.54289 17.7071C5.73043 17.8947 5.98478 18 6.25 18H7.43C7.26554 18.4531 7.21269 18.9392 7.27593 19.4171C7.33917 19.895 7.51665 20.3506 7.79332 20.7454C8.06999 21.1401 8.43772 21.4624 8.86535 21.6849C9.29299 21.9074 9.76795 22.0235 10.25 22.0235C10.7321 22.0235 11.207 21.9074 11.6346 21.6849C12.0623 21.4624 12.43 21.1401 12.7067 20.7454C12.9834 20.3506 13.1608 19.895 13.2241 19.4171C13.2873 18.9392 13.2345 18.4531 13.07 18H15.43C15.2803 18.4126 15.2229 18.853 15.262 19.2902C15.301 19.7274 15.4356 20.1507 15.656 20.5302C15.8765 20.9098 16.1776 21.2363 16.538 21.4868C16.8985 21.7373 17.3095 21.9056 17.7421 21.98C18.1747 22.0543 18.6183 22.0328 19.0417 21.917C19.465 21.8012 19.8578 21.5939 20.1924 21.3097C20.5269 21.0255 20.795 20.6714 20.9777 20.2723C21.1605 19.8732 21.2534 19.4389 21.25 19C21.2481 18.4834 21.1102 17.9764 20.85 17.53C21.2776 17.2604 21.6302 16.8871 21.8749 16.4448C22.1197 16.0025 22.2487 15.5055 22.25 15ZM18.34 12H9.75L8.09 6.00001H19.95L18.34 12ZM10.25 20C10.0522 20 9.85888 19.9414 9.69443 19.8315C9.52998 19.7216 9.40181 19.5654 9.32612 19.3827C9.25043 19.2 9.23063 18.9989 9.26921 18.8049C9.3078 18.6109 9.40304 18.4328 9.54289 18.2929C9.68275 18.153 9.86093 18.0578 10.0549 18.0192C10.2489 17.9806 10.45 18.0004 10.6327 18.0761C10.8154 18.1518 10.9716 18.28 11.0815 18.4444C11.1914 18.6089 11.25 18.8022 11.25 19C11.25 19.2652 11.1446 19.5196 10.9571 19.7071C10.7696 19.8947 10.5152 20 10.25 20ZM18.25 20C18.0522 20 17.8589 19.9414 17.6944 19.8315C17.53 19.7216 17.4018 19.5654 17.3261 19.3827C17.2504 19.2 17.2306 18.9989 17.2692 18.8049C17.3078 18.6109 17.403 18.4328 17.5429 18.2929C17.6827 18.153 17.8609 18.0578 18.0549 18.0192C18.2489 17.9806 18.45 18.0004 18.6327 18.0761C18.8154 18.1518 18.9716 18.28 19.0815 18.4444C19.1914 18.6089 19.25 18.8022 19.25 19C19.25 19.2652 19.1446 19.5196 18.9571 19.7071C18.7696 19.8947 18.5152 20 18.25 20Z" fill="#9AA6AC"/>
</svg>
