<svg width="25" height="24" viewBox="0 0 25 24" fill="none" xmlns="http://www.w3.org/2000/svg">
    <path d="M20.875 8.00001L14.875 2.74001C14.325 2.24805 13.6129 1.97607 12.875 1.97607C12.1371 1.97607 11.425 2.24805 10.875 2.74001L4.875 8.00001C4.55737 8.28408 4.3039 8.63256 4.13148 9.02225C3.95905 9.41194 3.87162 9.83389 3.875 10.26V19C3.875 19.7957 4.19107 20.5587 4.75368 21.1213C5.31629 21.6839 6.07935 22 6.875 22H18.875C19.6707 22 20.4337 21.6839 20.9963 21.1213C21.5589 20.5587 21.875 19.7957 21.875 19V10.25C21.877 9.82557 21.7889 9.40555 21.6165 9.01769C21.4441 8.62983 21.1914 8.28296 20.875 8.00001ZM14.875 20H10.875V15C10.875 14.7348 10.9804 14.4804 11.1679 14.2929C11.3554 14.1054 11.6098 14 11.875 14H13.875C14.1402 14 14.3946 14.1054 14.5821 14.2929C14.7696 14.4804 14.875 14.7348 14.875 15V20ZM19.875 19C19.875 19.2652 19.7696 19.5196 19.5821 19.7071C19.3946 19.8946 19.1402 20 18.875 20H16.875V15C16.875 14.2044 16.5589 13.4413 15.9963 12.8787C15.4337 12.3161 14.6707 12 13.875 12H11.875C11.0794 12 10.3163 12.3161 9.75368 12.8787C9.19107 13.4413 8.875 14.2044 8.875 15V20H6.875C6.60979 20 6.35543 19.8946 6.1679 19.7071C5.98036 19.5196 5.875 19.2652 5.875 19V10.25C5.87518 10.108 5.9056 9.9677 5.96422 9.83839C6.02284 9.70907 6.10833 9.59372 6.215 9.50001L12.215 4.25001C12.3975 4.08969 12.6321 4.00127 12.875 4.00127C13.1179 4.00127 13.3525 4.08969 13.535 4.25001L19.535 9.50001C19.6417 9.59372 19.7272 9.70907 19.7858 9.83839C19.8444 9.9677 19.8748 10.108 19.875 10.25V19Z" fill="#FFCC00"/>
</svg>
